<?xml version="1.0" encoding="UTF-8" standalone="no" ?>
<!DOCTYPE svg PUBLIC "-//W3C//DTD SVG 1.1//EN" "http://www.w3.org/Graphics/SVG/1.1/DTD/svg11.dtd">
<svg xmlns="http://www.w3.org/2000/svg" xmlns:xlink="http://www.w3.org/1999/xlink" version="1.1" width="120" height="120" viewBox="0 0 125 125" xml:space="preserve">
<desc>Created with Fabric.js 5.2.4</desc>
<defs>
</defs>
<g transform="matrix(1 0 0 1 62 62)"  >
<g style="" vector-effect="non-scaling-stroke"   >
		<g transform="matrix(1 0 0 01 0.00 0.0)"  >
<path style="stroke: rgb(1,225,148); stroke-width: 2; stroke-dasharray: none; stroke-linecap: butt; stroke-dashoffset: 0; stroke-linejoin: miter; stroke-miterlimit: 4; fill:none; opacity: 1;" vector-effect="non-scaling-stroke"  transform=" translate(-136.05, -142.73)" d="M 175.02 189.61 L 151.92000000000002 189.61 C 151.92000000000002 189.61 151.92000000000002 133.62 151.92000000000002 133.62 C 151.92000000000002 129.04 148.21 125.33000000000001 143.63000000000002 125.33000000000001 L 90.70000000000002 125.33000000000001 C 90.70000000000002 125.33000000000001 90.70000000000002 104.14000000000001 90.70000000000002 104.14000000000001 C 90.70000000000002 99.56000000000002 94.41000000000001 95.85000000000002 98.99000000000001 95.85000000000002 L 162.27 95.85000000000002 C 172.83 95.85000000000002 181.4 104.41000000000003 181.4 114.98000000000002 L 181.4 183.23000000000002 C 181.4 186.75000000000003 178.55 189.61 175.02 189.61 Z" stroke-linecap="round" />
</g>
		<g transform="matrix(1 0 0 1 -19 19.6)"  >
<path style="stroke: rgb(1,225,148); stroke-width: 2; stroke-dasharray: none; stroke-linecap: butt; stroke-dashoffset: 0; stroke-linejoin: miter; stroke-miterlimit: 4; fill: none; fill-rule: nonzero; opacity: 1;" vector-effect="non-scaling-stroke"  transform=" translate(-117.04, -161.74)" d="M 138.87 133.86 L 123.89 133.86 C 121.69 133.86 119.58 134.73000000000002 118.03 136.29000000000002 L 93.12 161.20000000000002 C 91.57000000000001 162.75000000000003 90.69 164.86 90.69 167.06000000000003 L 90.69 181.33000000000004 C 90.69 185.91000000000005 94.39999999999999 189.62000000000003 98.97999999999999 189.62000000000003 L 110.19 189.62000000000003 C 112.39 189.62000000000003 114.5 188.75000000000003 116.05 187.19000000000003 L 140.96 162.28000000000003 C 142.51000000000002 160.73000000000002 143.39000000000001 158.62000000000003 143.39000000000001 156.42000000000002 L 143.39000000000001 138.38000000000002 C 143.39000000000001 135.88000000000002 141.37 133.86 138.87 133.86 Z" stroke-linecap="round" />
</g>
</g>
</g>
</svg>