<svg id="Layer_1" xmlns="http://www.w3.org/2000/svg" viewBox="90.68 95.83 90.73 93.8"><defs><style>.cls-1</style></defs><path class="cls-1" d="M175.02,189.61h-23.1s0-55.99,0-55.99c0-4.58-3.71-8.29-8.29-8.29h-52.93s0-21.19,0-21.19c0-4.58,3.71-8.29,8.29-8.29h63.28c10.56,0,19.13,8.56,19.13,19.13v68.25c0,3.52-2.85,6.38-6.38,6.38Z"/><path class="cls-1" d="M138.87,133.86h-14.98c-2.2,0-4.31.87-5.86,2.43l-24.91,24.91c-1.55,1.55-2.43,3.66-2.43,5.86v14.27c0,4.58,3.71,8.29,8.29,8.29h11.21c2.2,0,4.31-.87,5.86-2.43l24.91-24.91c1.55-1.55,2.43-3.66,2.43-5.86v-18.04c0-2.5-2.02-4.52-4.52-4.52Z"/></svg>